<svg xmlns="http://www.w3.org/2000/svg" viewBox="0 0 1852 1080"><filter id="a"><feGaussianBlur stdDeviation="2"/></filter><path fill="#7b8d8d" d="M0 0h1852v1077H0z"/><g filter="url(#a)" fill-opacity=".5"><path fill="#000100" d="m1291.3 1175.6 672.8-79.6-318.3-477.5z"/><path fill="#cdcdd2" d="M1530 358.1 322-112.1l21.6 1114z"/><path fill="#142312" d="m264-112.1 79.6 1295-318.3-123z"/><path fill="#001310" d="m1725.4 495.6-123 694.5-123-1302.2z"/><path fill="#b9ffff" d="m285.8 126.6 846.4-238.7-152 340z"/><path fill="#954530" d="m1486.7 199-434.1 231.4L293 235.1z"/><path fill="#aeebfe" d="m1493.9 264 72.3 861-296.6-673z"/><path fill="#e75515" d="m510 1190 202.6-470.2L510 560.7z"/><path fill="#fa4007" d="M1161.1 300.2 1117.7 937l202.6 94z"/><path fill="#dbfcff" d="m1161.1 647.5-86.8-361.7L495.6 575z"/><path fill="#00161f" d="M1964.1 184.5 1834 763.2 1768.8-112z"/><path fill="#9affff" d="M1718.2 589.6 1790.5-47l-144.7 166.4z"/><path fill="#d16b55" d="m553.4 416 658.4-7.3-622.2-166.3z"/><path fill="#a1eaff" d="m944 973 108.6-426.8 108.5 434z"/><path fill="#a3e4f2" d="m184.5 278.5 7.2 318.3-246-274.9z"/><path fill="#001a22" d="m1428.8 112.1 217 166.4-43.4-390.6z"/><path fill="#61b7cf" d="m944 596.8-224.2 593.3L662 669z"/><path fill="#99f4ff" d="m300.2-97.7 817.5 123-716.2 209.8z"/><path fill="#f7693b" d="M531.7 719.8 691 1139.4l-72.4-824.7z"/><path fill="#618371" d="m184.5 365.3-21.7 687.3-275-231.5z"/><path fill="#000d14" d="m199-32.6 21.6 499.2L336.4-32.6z"/><path fill="#a9ffff" d="m835.6 379.8 7.2-79.6-217 43.4z"/><path fill="#000005" d="m879 973 7.2-289.4 72.4 94.1z"/><path fill="#120000" d="m264 560.7 7.3 405-166.4 217.1z"/><path fill="#080100" d="m1790.5 1146.6-65.1-354.4-282.1 390.6z"/><path fill="#2b383b" d="m524.5 293 282.1-72.4L293 206.2z"/><path fill="#7fcce1" d="m1703.7 539 130.2 101.2-57.9 405.2z"/><path fill="#5497a7" d="M560.7 604 321.9 430.5l-57.8 492z"/><path fill="#a7d8e5" d="m871.7 987.5-289.3 57.9 260.4-340z"/><path fill="#c3ffff" d="m314.7 430.4 246-14.4L575 611.3z"/><path fill="#232214" d="m1819.4 445 7.3 694.4L1964 719.8z"/><path fill="#aeffff" d="m929.6 372.6 50.7-72.4 188 43.4z"/><path fill="#467482" d="m741.5 618.5 405.1 123-506.4 29z"/><path fill="#4c4c45" d="m596.8 1009.2 1012.8 21.7-622.1 159.2z"/><path fill="#c7ffff" d="m1479.4 343.6-311 14.5 86.8-65.1z"/><path fill="#b93010" d="m1175.6 336.4 195.3 65.1-434 7.2z"/><path fill="#213b34" d="m944 220.6 463-14.4-209.7 79.6z"/><path fill="#88a294" d="m-76 1190 260.5-253L170 654.7z"/><path fill="#99fcff" d="m350.9 445-43.4-181 188 65.2z"/><path fill="#3f7b8a" d="m1081.5 32.6 463 325.5-130.2-470.2z"/><path fill="#a83825" d="m596.8 358.1-180.8 29 209.8 65z"/><path fill="#61888a" d="m1580.7 734.3-282.1 29L1096 437.6z"/><path fill="#8ee8f7" d="m1342 799.4-72.4 21.7 36.2 188.1z"/><path fill="#c2f6ff" d="m690.9 662-79.6-238.8 528.1-7.2z"/><path fill="#3c4d3c" d="m3.6 994.7 115.8-405.1-231.5 57.9z"/><path fill="#ee6950" d="m408.7 322 231.5-58-238.7-21.6z"/><path fill="#b6ffff" d="M842.8 372.6 763.2 293l-144.7 50.6z"/><path fill="#b2e9ff" d="M1009.2 213.4 358.1 199l701.7-311z"/><path fill="#1b1f0d" d="m1537.3 1190-130.2-274.9-94 144.7z"/><path fill="#0e130c" d="m285.8 539-86.9-130.3-14.4 412.4z"/><path fill="#3f736f" d="m-39.8-112.1 246 180.8-318.3 383.4z"/><path fill="#4e4f43" d="m1739.9 517.3-173.7 564.2-43.4-441.3z"/><path fill="#f64d22" d="m886.2 329.2-231.5-79.6h448.5z"/><path fill="#ff6345" d="m1284.1 951.3-166.4-361.7v325.5z"/><path fill="#c3340f" d="M712.6 408.7h224.3L915 329.2z"/><path fill="#004d69" d="m835.6 206.2-159.2 43.4h303.9z"/><path fill="#c94e33" d="m654.7 372.6-72.3 332.8-14.5-231.5z"/><path fill="#d73b0b" d="m1233.5 242.4 137.4 21.7-260.4 65z"/><path fill="#c5e7f3" d="M1522.8 546.2 1443.3 170 1407 647.5z"/><path fill="#538484" d="M264 531.7 293-112l79.6 303.8z"/><path fill="#1d5264" d="M1834-32.6 1725.3 228l231.5 14.5z"/><path fill="#98e1ff" d="m1653 133.8 130.3 137.5 14.4 209.8z"/><path fill="#78400c" d="m1255.2 589.6 43.4 289.4-65.1-108.5z"/><path d="m83.2 1067 130.2 123 7.2-253.1z"/><path fill="#66786a" d="m1248 1052.6 130-231.5 144.7 152z"/><path fill="#20404a" d="M936.9 1023.7 973 705.4 900.7 821z"/><path fill="#94d6e6" d="m994.7 1045.4 123-180.9-159.1-166.4z"/><path fill="#42585c" d="m1682 517.3 202.6 123 79.5-231.6z"/><path fill="#8cb0b9" d="m1219 553.4 202.6 282.2L1305.8 452z"/><path fill="#73909a" d="M1045.4 763.2 1161 625.8H741.5z"/><path fill="#95e3f2" d="m669.2 922.4 202.5-159.2H669.2z"/><path fill="#7f7464" d="m387 1110.5-72.3-405.1L242.4 944z"/><path fill="#428aa2" d="m1153.9-90.4 57.9 347.2-195.4-108.5z"/><path fill="#b4e8fd" d="m83.2 437.7 123-65.1L61.5 264z"/><path fill="#a4f6ff" d="m1653 97.7 36.2 238.7 79.6-303.8z"/><path fill="#7b4e2f" d="m560.7 698.1-43.4 130.2-7.3-274.9z"/><path fill="#a3e2fc" d="m329.2 206.2-14.5 296.6 108.5-137.5z"/><path fill="#a0f8ff" d="M372.6 387 575 343.6l-166.4-43.4z"/><path fill="#0f1301" d="m1862.9 1161.1-173.7-361.7-115.7 369z"/><path fill="#ff9368" d="m539 669.2 123 253.2 7.2-275z"/><path fill="#bbf0ff" d="m1002 336.4 123-29 43.4 50.7z"/><path fill="#203d42" d="m1465 25.3 130.2 600.5 43.4-738z"/><path fill="#86dfff" d="M719.8-3.6 307.5-112.1 358 162.8z"/><path fill="#d9f2fb" d="m1805 611.3-108.5-57.9 36.1 86.8z"/><path fill="#b2e1f3" d="M1096 213.4 416 199l238.7-311z"/><path fill="#ca977d" d="m539 813.9 188 209.8-159 43.3z"/><path fill="#cdeffb" d="m1153.9 575.1-513.7 50.7-7.2-180.9z"/><path fill="#baf7ff" d="M1392.6 278.5 1211.8 351l180.8 21.7z"/><path fill="#e1ffff" d="m1276.9 481 86.8-50.6-180.9-21.7z"/><path fill="#894e2b" d="m1197.3 604-7.2-354.4-50.7 202.5z"/><path fill="#9ea591" d="m336.4 445-57.9 130V387z"/><path fill="#5a8a82" d="M39.8 387 170 589.6l-224.3 65.1z"/><path fill="#aef9ff" d="m965.8 372.6 130.2-65.1H922.4z"/><path fill="#9a3900" d="m1248 756 43.3 231.5-65 21.7z"/><path fill="#000a08" d="M343.6-112.1 199 191.7 220.6-112z"/><path fill="#225c67" d="m242.4 170 347.2 58-209.8 21.7z"/><path fill="#446669" d="m951.3-112.1 275 231.5L1450.4 76z"/><path fill="#93ccd8" d="m1291.3 1023.7 58-209.8-72.4-36.2z"/><path fill="#af4014" d="M1117.7 293h-123l195.4-79.6z"/><path fill="#90c4cb" d="M300.2 741.5 510 1031l-14.4-246z"/><path fill="#2d5156" d="m1407 293 238.8-173.6 14.5 188z"/><path fill="#aadced" d="m1407 90.4-108.4 115.8 14.4-57.9z"/><path fill="#99e3fc" d="M625.8 90.4h455.7L1067.1-112z"/><path fill="#2d5058" d="m1862.9 170 72.3 101.3-195.3 65.1z"/><path fill="#cedde6" d="m1486.7 466.6-180.9 50.7 79.6 130.2z"/><path fill="#b9e3f0" d="m647.5 445 484.7 202.5 14.4-217z"/><path fill="#dfe9ec" d="M879 170 481 18l87 137.6z"/><path fill="#9bd4ed" d="m1168.4 18-29 137.5-50.6 14.5z"/><path fill="#72837f" d="M799.4 1190H285.8l340-217z"/><path fill="#5b7c73" d="m54.3-112.1 50.6 484.7 72.3-275z"/><path fill="#1e424d" d="m191.7 372.6 94-238.8-21.6 383.5z"/><path fill="#152424" d="m864.5 821.1 57.9-101.3 29 224.3z"/><path fill="#b9e2fa" d="m828.3 365.3-188-72.3-7.3 79.6z"/><path fill="#c24b31" d="m618.5 416 144.7-7.3-202.5-94z"/><path fill="#5494a6" d="m423.2 488.3 72.4 275-180.9-21.8z"/><path fill="#435d58" d="M322 452.1 256.7 228l57.9-173.6z"/><path fill="#b23e11" d="m582.4 712.6-14.5 188 57.9-101.2z"/><path fill="#9fdbea" d="m1421.6 213.4 65-29-101.2 115.8z"/><path fill="#5892a6" d="M-112.1 148.3 47 133.8l7.3 246z"/><path fill="#253735" d="m1776 1009.2-180.8-282.1 29-434.1z"/><path fill="#3d7b8e" d="m705.4 763.2-21.8-123 267.7 108.6z"/><path fill="#5e888e" d="m1132.2 177.2 43.4 108.6 224.3-318.4z"/><path fill="#f85e3d" d="m1153.9 980.3-36.2-318.4 130.2 86.9z"/><path fill="#2a2e1e" d="m220.6 633-282 14.5 144.6 36.1z"/><path fill="#c7bfb3" d="m1219 973 36.2 43.4-130.3 14.5z"/><path fill="#608378" d="m177.2 640.2-289.3 217 303.8 65.2z"/><path fill="#736855" d="m1240.7 719.8-108.5-137.4 151.9-14.5z"/><path fill="#7ea8c0" d="M1812.2 423.2 1667.5 351l43.4 151.9z"/><path fill="#72c6de" d="m1530 712.6-86.7 217-14.5-303.8z"/><path fill="#0d1309" d="m1812.2 1009.2 43.4-231.5 101.3 361.7z"/><path fill="#94c3d1" d="M1472.2 54.3 1465-11l-87 144.8z"/><path fill="#266c90" d="M1667.5 18v-130l152 144.7z"/><path fill="#bdeeff" d="M517.3 560.7 379.8 444.9l173.6-29z"/><path fill="#d85c41" d="m531.7 307.5 108.5-65.1 224.3 65z"/><path fill="#6d6c5f" d="m1580.7 1190-7.2-159.1-209.8-202.6z"/><path fill="#a4e7f4" d="m1110.5 763.2 14.4 152-151.9-152z"/><path fill="#003a51" d="M1081.5 227.9H929.6l72.4 21.7z"/><path fill="#a9e6ff" d="m1096 372.6-101.3-7.3 21.7-65z"/><path fill="#8f9d89" d="m-47 1009.2 144.7 43.4 94-159.2z"/><path fill="#a94c44" d="m567.9 379.8-130.2 43.4-36.2-36.2z"/><path fill="#91e1ff" d="m1689.2 177.2 7.3-195.3 86.8 152z"/><path fill="#95a9a5" d="m307.5 799.4 94 231.5 108.5-123z"/><path fill="#578a99" d="m1291.3 546.2 180.9 166.4-65.1 72.3z"/><path fill="#3a483f" d="M1436 1009.2v-72.3l-159 43.4z"/><path fill="#89c3d3" d="m850 1103.2-144.6-311L886.2 879z"/><path fill="#f1613f" d="m1125 647.5 108.5-29V662z"/><path fill="#96c8dc" d="M951.3 994.7v-123l123 130.3z"/><path fill="#697a76" d="m1342 473.9-152 14.4 7.3 50.7z"/><path fill="#5d737a" d="m1125 987.5-904.4 130.2 586 72.4z"/><path fill="#425142" d="m227.9 777.7-79.6 79.6-137.4-29z"/></g></svg>