<svg xmlns="http://www.w3.org/2000/svg" viewBox="0 0 1744 1080"><filter id="a"><feGaussianBlur stdDeviation="2"/></filter><path fill="#6f6961" d="M0 0h1744v1076H0z"/><g filter="url(#a)" fill-opacity=".5"><path fill="#000008" d="m752.8 1182 558.6-75L930 282.7z"/><path fill="#bda9b4" d="M1297.8-105.6 78.3 146.4l1621.4 259z"/><path fill="#1b1e0b" d="m228.2 677.8-333.8 368L643.8 1182z"/><path fill="#baa4ac" d="m725.5 534.8 231.7-640.4L235 534.8z"/><path fill="#a48a86" d="M957.2 507.5 1216 705.1l306.6-810.7z"/><path fill="#00030c" d="m861.8 432.6-61.3-177.1 184 27.2z"/><path fill="#94a465" d="m1229.7 671-13.7 395.2 436-95.4z"/><path fill="#b4b0b1" d="M1039-105.6H316.7l776.6 463.3z"/><path fill="#31562a" d="m1815.5 909.5-565.4-150 599.5-74.8z"/><path fill="#262b2c" d="m-64.7 616.5 306.5-156.7 54.5 204.4z"/><path fill="#8e7e7d" d="m800.5 112.4-620-218L344 957.2z"/><path fill="#181d26" d="m766.4 834.5 463.3 333.8-27.3-545z"/><path fill="#b89d72" d="m759.6 623.3-361 170.4 313.3 54.5z"/><path fill="#9fb66f" d="m1665.7 521.2-75 190.7L1345.5 562z"/><path fill="#463f50" d="M-71.5 23.8 160-105.6l75 470z"/><path fill="#040608" d="M1039 419 916.2 521.2 984.4 269z"/><path fill="#8c95ac" d="m153.3 357.7-20.5 190.7-238.4-61.3z"/><path fill="#917c80" d="m1045.7-105.6-13.6 694.9 735.7-306.6z"/><path fill="#1a2419" d="m-105.6 1073 327 13.6-327-497.3z"/><path fill="#4c4833" d="m1386.3 984.4-204.3-75 156.7 204.4z"/><path fill="#403139" d="m1849.6 167-190.8-272.6-68 286.1z"/><path fill="#595240" d="m-71.5 746 545 340.6L814 957.2z"/><path fill="#3d4824" d="m1618 1093.4 231.6-47.7V303.2z"/><path fill="#231d1e" d="m194.2 282.7 27.2 395.1-75-204.3z"/><path fill="#a3a3ac" d="M357.7-10.2 221.4-17l136.3 231.6z"/><path fill="#8b5f4f" d="m698.3 439.4 177.1 184L916.3 419z"/><path fill="#6d8455" d="m1488.5 650.6-456.4-47.7 647.2 388.3z"/><path fill="#4d4731" d="m1420.4 459.8-88.6 279.4-47.6-224.9z"/><path fill="#40455a" d="m780 712-61.3 313.3 122.6 122.6z"/><path fill="#51593e" d="m-58 827.7 415.7-136.2 163.5 333.8z"/><path fill="#ab8688" d="m582.5 582.5 143-115.8 115.8 122.6z"/><path fill="#b9ad96" d="M691.5 977.6 384.9 1182l293-88.6z"/><path fill="#a18f90" d="m1161.5 473.5-238.4-259 456.4-54.4z"/><path fill="#988589" d="m194.2 391.7-6.9 163.5h61.4z"/><path fill="#141821" d="m868.6 1182 68.1-613.2-129.4 218z"/><path fill="#bfc7c9" d="M889 214.6v-320.2l-184 143z"/><path fill="#a3a77b" d="m1406.8 793.7-184 68 327 184z"/><path fill="#b3ae76" d="m1304.6 623.3-149.9 20.5 47.7-102.2z"/><path fill="#7e6e74" d="m1515.8-10.2 265.7 367.9-626.8-245.3z"/><path fill="#647050" d="m1522.6 752.8 272.5-68.1L1836-58z"/><path fill="#777984" d="M146.5 112.4 160 337.2-105.6 167z"/><path fill="#727a53" d="M316.8 759.6 419 548.4l381.5 224.8z"/><path fill="#171817" d="m1222.8 895.8-190.7-245.2 170.3 102.2z"/><path fill="#1f231d" d="m207.8 616.5 54.5 115.8-75 136.3z"/><path fill="#969ba6" d="m-64.7 337.2 143 54.5L160.1 528z"/><path fill="#9ba671" d="m-51 752.8 252 13.6-6.8-68.1z"/><path fill="#9fa87a" d="m562 718.7-40.8-95.4-238.5 54.5z"/><path fill="#2f3243" d="m1032 1182 61.4-490.5-218-75z"/><path fill="#9f9f73" d="m1379.5 643.8 245.3 54.5L1434 507.5z"/><path fill="#7d686d" d="m439.4-85.2-143 442.9L562 235z"/><path fill="#444834" d="m582.5 677.8 6.8-183.9-88.6 245.3z"/><path fill="#afa7a8" d="m1066.2-51 47.6 204.3-218-68.1z"/><path fill="#74775e" d="m1359 752.8-340.5-245.3 102.2 197.6z"/><path fill="#998892" d="M500.7 582.5 480.3 235 282.7 575.7z"/><path fill="#cbb79f" d="m575.7 773.2 143 6.8-68.1 54.5z"/><path fill="#403436" d="m1652 23.8-149.8-34 163.5 129.4z"/><path fill="#aa999d" d="m214.6 173.7-6.8 88.6 143-68.1z"/><path fill="#7b7783" d="M1488.5 330.4 1257 494l531.4-177.1z"/><path fill="#a09193" d="M800.5 23.8 466.7 337.2 814 391.7z"/><path fill="#2e2a2f" d="m1148 712-68.2 6.7 75-136.2z"/><path fill="#1f252b" d="M841.3 241.8 998 310 889 412.2z"/><path fill="#71594f" d="M930 541.6 800.4 303.2v347.4z"/><path fill="#968868" d="m167 623.3 13.5 47.7-109-34z"/><path fill="#444542" d="M344 630.2h197.6l-34-54.5z"/><path fill="#7a695d" d="m1393.2 453-20.5 129.5-429.2-75z"/><path fill="#4a434c" d="M173.7 344 276 466.7-10.2 310z"/><path fill="#a18989" d="m1004.8 514.3 293-88.5-204.4-293z"/><path fill="#797344" d="m1454.5 1182 245.2-211.2-470 75z"/><path fill="#60535b" d="m412.2 303.2-75 177-88.5 20.5z"/><path fill="#635656" d="m568.8 439.4-20.4-143-47.7 115.8z"/><path fill="#829f6e" d="M1454.5 943.5V855h313.3z"/><path fill="#524a53" d="m-64.7-58 238.4 259 109-306.6z"/><path fill="#3c3c2f" d="m1413.6 746-136.3-218 47.7 177z"/><path fill="#584a56" d="m1679.3 71.5 61.3 442.8 109-299.7z"/><path fill="#3e3828" d="M357.7 609.7h-75l-88.5 129.5z"/><path fill="#775f5f" d="M446.2 514.3 650.6 494l40.9 88.6z"/><path fill="#211f24" d="M780 739.2 752.8 705l27.2-88.6z"/><path fill="#2a3e31" d="m1604.3 780 143.1-47.7 102.2 184z"/><path fill="#958773" d="m643.8 957.2 27.2 102.1 54.5-88.5z"/><path fill="#898964" d="m289.5 637-34 163.5L378 630.2z"/><path fill="#908285" d="m964 296.3 143-68-231.6-54.6z"/><path fill="#151410" d="m1113.8 1182 115.9-88.6-143.1-395.1z"/><path fill="#3b332d" d="m1257 541.6 40.8 20.4 34-115.8z"/><path fill="#302d28" d="m-105.6 923 640.4 259-177.1-211.2z"/><path fill="#74624d" d="M507.5 827.7h218L609.7 1039z"/><path fill="#876e72" d="m650.6 98.8 40.9-68.1-177.2-136.3z"/><path fill="#7c6a68" d="m1345.5 303.2 122.6-109-122.6 245.2z"/><path fill="#939268" d="m534.8 759.6 68.1-156.7 61.3 68.1z"/><path fill="#263436" d="m228.2 609.7-333.8 13.6V507.5z"/><path fill="#504e55" d="m712 998 102-177 20.5 320z"/><path fill="#292b26" d="m126 432.6 81.8-75-34 122.7z"/><path fill="#887958" d="m289.5 752.8 259 81.7-34.2 95.4z"/><path fill="#a19c74" d="m1229.7 664.2 6.8-170.3 68 136.3z"/><path fill="#918e7f" d="m1086.6 671 34-20.4-54.4-68.1z"/><path fill="#826155" d="m882.2 446.2-149.9 40.9V357.7z"/><path fill="#c9d2d2" d="M310 58 289.5 3.3l6.8 81.8z"/><path fill="#7a8d60" d="M1849.6 473.5v170.3l-402 13.6z"/><path fill="#616352" d="m1556.7 276-136.3 231.5 122.6 27.3z"/><path fill="#a39175" d="m671 821-374.7-7 163.5-54.4z"/><path fill="#9d8a71" d="m705 930-156.6-7 129.4-47.6z"/><path fill="#50433e" d="m616.5 1045.7-279.3-68.1 149.9-75z"/><path fill="#88818d" d="m1658.8 412.2-177 20.4 163.4-258.9z"/><path fill="#403947" d="M1018.5 521.2 882.2 528l218 115.8z"/><path fill="#594e53" d="M139.7 357.7 105.6 419 37.5 194.2z"/><path fill="#1d1b11" d="M187.3 616.5 167 459.8l34 68.2z"/><path fill="#536a46" d="M514.3 705h-218l-54.5 136.3z"/><path fill="#969c77" d="m316.8 650.6 218 61.3 6.8-68.1z"/><path fill="#36332b" d="m262.3 664.2-20.5 204.4L37.5 991.2z"/><path fill="#5d7b50" d="M1638.4 875.4 1618 991.2l231.6-163.5z"/><path fill="#99888c" d="m1345.5 98.8 272.5 109-122.7-122.6z"/><path fill="#9bb17d" d="m1291 712-102.2-7 68.1 41z"/><path fill="#59684c" d="m1645.2 827.7-442.8-40.9L1440.8 671z"/><path fill="#7e797f" d="m861.8 534.8 54.5 6.8-88.6 122.6z"/><path fill="#645d49" d="m446.2 909.5-306.5 27.2 265.6-143z"/><path fill="#272220" d="m214.6 473.5 47.7-47.7L269 487z"/><path fill="#89675b" d="M889 466.7 712 419l238.3-6.8z"/><path fill="#1e262e" d="M-105.6 3.4v75l184 88.5z"/><path fill="#191f2f" d="m786.8 1148 429.2 13.5-354.2-245.2z"/><path fill="#1e2122" d="m936.7 473.5 88.6-102.2-95.4-68.1z"/><path fill="#435f85" d="m146.5 528-150 54.5-102-61.3z"/><path fill="#847572" d="m241.8 534.8-54.5-54.5L241.8 671z"/><path fill="#848388" d="M-105.6 316.8 37.4 528 167 398.5z"/><path fill="#5a6f44" d="m657.4 677.8-27.2-88.5L746 602.9z"/><path fill="#5e534f" d="M1270.5 350.8 1291 453l6.8-61.3z"/><path fill="#7d717a" d="m337.2 364.5 47.7 286L255.5 453z"/><path fill="#38302c" d="m282.7 657.4-34-170.3-20.5 109z"/><path fill="#50514f" d="m1025.3 330.4-156.7-81.7 88.6 13.6z"/><path fill="#a29fa6" d="m385 405.3 13.5-61.3L562 323.6z"/><path fill="#988a6b" d="m1311.4 984.4 279.3 75-102.2-75z"/><path fill="#a48c8c" d="M807.3 548.4 500.7 214.6l143 306.6z"/><path fill="#857f77" d="m1366 568.8 81.7-197.5-129.5 6.8z"/><path fill="#9fadb9" d="m1427.2 323.6 68.1-34-54.5 74.9z"/><path fill="#3e3c2e" d="m1372.7 596 13.6-88.5 61.4-54.5z"/><path fill="#bebfc2" d="m630.2-85.2 327 286.2-150-306.6z"/><path fill="#877573" d="m1291 541.6-184-184 177.2 102.2z"/><path fill="#87a677" d="m1502.2 807.3-115.9 109-109-109z"/><path fill="#725d5e" d="m1400 173.7-88.6-47.7 163.5 20.5z"/><path fill="#a7a7ab" d="m235 105.6 109-34L262.3 17z"/><path fill="#2d2a22" d="m160 494 54.6 252 13.6-136.3z"/><path fill="#3b3e4b" d="M1086.6 943.5 964 623.3l115.8 95.4z"/><path fill="#7a98ac" d="M1849.6 378 1652 316.9l136.3-6.8z"/><path fill="#252424" d="M1004.8 459.8 821 350.8l184-27.2z"/><path fill="#808c9c" d="m160 541.6-204.3-75 190.8-6.8z"/><path fill="#8e8185" d="m30.7 173.7 149.8 190.8-20.4-95.4z"/><path fill="#695b44" d="m-105.6 596 27.3 150 245.2-54.5z"/><path fill="#999f6f" d="m1359 541.6-20.3 75 27.2 27.2z"/><path fill="#3e4132" d="m1338.7 964-150-6.8 163.6 54.5z"/><path fill="#585944" d="m1713.3 589.3 68.2-95.4-109-115.8z"/><path fill="#7c8591" d="M132.8 207.8 17 98.8l81.8 34z"/><path fill="#6d5c5e" d="m1440.8 51 184-40.8-6.8 163.5z"/></g></svg>