<svg xmlns="http://www.w3.org/2000/svg" viewBox="0 0 1919 1080"><filter id="b"><feGaussianBlur stdDeviation="2" /></filter><path fill="#6e5612" d="M0 0h1919v1079H0z"/><g filter="url(#b)" fill-opacity=".5"><path fill="#f0b100" d="M1907.8 86.2L258.6-116.2l532.2 907z"/><path fill="#0f1432" d="M-71.2 558.5l2106.4 299.8-1926.5 277.4z"/><path fill="#151700" d="M-116.2 1120.7L476 461 33.7-116.2z"/><path fill="#080a10" d="M1278 618.4l592.3 284.9 164.9-479.8z"/><path fill="#bf9105" d="M1525.5-116.2L371 446l884.5 397.3z"/><path fill="#d8b397" d="M738.4 753.4l-7.5 322.3 202.4 120z"/><path fill="#9fa27e" d="M386 805.8l-142.4 337.4 225-82.5z"/><path fill="#4c4e68" d="M1855.3 1195.6L850.8 1045.7l1176.9-202.4z"/><path fill="#352000" d="M2005.2-116.2l-374.8 247.4 262.4 367.3z"/><path fill="#25091c" d="M1060.7 521l75 644.6-232.4-577.2z"/><path fill="#0d0300" d="M498.5 63.7l-614.7 45L26.2-116.2z"/><path d="M1593 1195.6h-150l7.5-502.2z"/><path fill="#d09222" d="M611 656l704.6-75-457.3 179.9z"/><path fill="#c8e9ff" d="M191.2 1188.1l-240-277.3-67.4 179.9z"/><path d="M431 760.9l120 434.7 119.9-397.3z"/><path fill="#8b7100" d="M700.9-116.2L266 71.2l255 607.2z"/><path fill="#130507" d="M940.8 663.4l194.9 427.3-344.9-157.4z"/><path fill="#7c797b" d="M1555.4 1045.7l165-37.5-195-374.8z"/><path fill="#fdd224" d="M1218.1 506l-187.4-157.4L820.8 551z"/><path fill="#a8916d" d="M1128.2 1180.6l75-472.2 44.9 374.8z"/><path fill="#af7d00" d="M1428 618.4l75-734.6 314.8 284.9z"/><path fill="#cabb0b" d="M476 611l-75-120 345-60z"/><path fill="#85622a" d="M700.9 1045.7L588.4 371.1l232.4 434.7z"/><path fill="#e5b206" d="M1578 236.1V-41.2l-464.8-75z"/><path fill="#979076" d="M1300.6 880.8l134.9 120-172.4 15z"/><path fill="#a2ab97" d="M363.6 903.3l-105 60 269.9 60z"/><path fill="#805400" d="M1255.6 146.2l-194.9 202.4-127.4-240z"/><path d="M1533 948.3l-75-269.9-120 217.4z"/><path fill="#131209" d="M378.6 940.8l-337.4-225L168.7 401z"/><path fill="#685800" d="M513.5 296.1l-30 247.4L-93.7 341z"/><path fill="#afb9b0" d="M1922.7 1105.7l-37.4-225 149.9-112.4z"/><path fill="#dbab82" d="M1083.2 1068.2l-195 120-134.8-157.5z"/><path d="M1113.2 1030.7L1090.7 731l90 120z"/><path fill="#070000" d="M393.5 296.1l-509.7-105L11.2 318.7z"/><path fill="#e0af0d" d="M880.8 745.9L933.3 341l-195 344.8z"/><path fill="#000008" d="M940.8 551l-30 149.9 97.4-165z"/><path fill="#d7af00" d="M738.4-116.2l622.1 45-622.1 269.8z"/><path fill="#45350b" d="M1293 536l742.2-120-794.6 487.3z"/><path fill="#231d0d" d="M1862.8 963.2L1465.5 461l509.7 157.4z"/><path fill="#241b11" d="M236.1 1060.7l-142.4-105 457.3 67.5z"/><path fill="#63645f" d="M33.7 1030.7l269.9 165-419.8-472.3z"/><path fill="#9a6f00" d="M1900.3 453.5H1293l82.4-277.3z"/><path fill="#1c1f0c" d="M296.1 850.8l97.4-517.2 30 277.3z"/><path fill="#c89900" d="M1083.2 438.5l-599.7-97.4 592.2-187.4z"/><path fill="#d8a900" d="M1068.2 663.4l90 120 22.4-374.9z"/><path fill="#8d736a" d="M1593 670.9l-127.5 75 105 90z"/><path fill="#000100" d="M1622.9 948.3l75-97.5-120 82.5z"/><path fill="#231600" d="M1930.2-108.7l-172.4 442.3 135-22.5z"/><path fill="#b18705" d="M1420.5 551l82.5 82.4-15-277.3z"/><path fill="#7d6c55" d="M1682.9 1083.2l22.5-404.8 60 232.4z"/><path fill="#030002" d="M1578 813.3l299.8 60-67.5-112.4z"/><path fill="#0f0900" d="M483.5-63.7l-494.7-52.5 22.4 254.9z"/><path fill="#ac8500" d="M1158.1 753.4l180-97.5-195-142.4z"/><path fill="#ac9b00" d="M1870.3 573.5l164.9-52.5-127.4-67.5z"/><path fill="#eef6f2" d="M333.6 955.8L446 978.2l-112.4 7.5z"/><path fill="#967802" d="M191.2 386L341 318.6-11.2 341z"/><path fill="#926900" d="M843.3 266.1L431 303.6 318.6-116.2z"/><path fill="#141313" d="M708.4 828.3l-239.9 367.3-45-427.3z"/><path fill="#6b626c" d="M783.3 1008.2L521 1090.7l224.9 45z"/><path fill="#403c26" d="M153.7 378.6L-116.2 341l135 554.7z"/><path fill="#ddc09a" d="M738.4 1195.6l45-224.9 52.4 52.5z"/><path fill="#48421a" d="M386 476L116.2 656l464.7 104.9z"/><path fill="#261a19" d="M873.3 1053.2l-90-150 337.4 120z"/><path d="M1008.2 176.2l-22.5-37.5 30-22.5z"/><path fill="#68542e" d="M123.7 903.3l194.9 97.4L236 783.3z"/><path fill="#322416" d="M408.5 768.3l240-232.3 7.4 120z"/><path fill="#7d5800" d="M1892.8 228.6l-412.3-337.3 224.9 374.8z"/><path fill="#b16b52" d="M1105.7 611l-202.4 22.4 112.4 97.5z"/><path fill="#ffd97c" d="M1045.7 528.5L903.3 506l112.4-30z"/><path fill="#774e00" d="M1360.5 656l-157.4-52.6L1443 311.1z"/><path fill="#060803" d="M348.6 760.9l-30 149.9-127.4-314.9z"/><path fill="#392c00" d="M588.4 273.6l-254.8 37.5-142.4 150z"/><path fill="#515259" d="M1480.5 933.3L1368 1113.2l-37.4-150z"/><path d="M153.7 1135.7l105-165-67.5-7.5z"/><path fill="#aca77f" d="M251.1 1053.2l322.4 45-584.7 97.4z"/><path fill="#afa031" d="M498.5 663.4l67.5-15-82.5-179.9z"/><path fill="#d8c002" d="M670.9 468.5l-194.9 75L581 401z"/><path fill="#604800" d="M176.2 273.6L48.7 48.7l180 45z"/><path fill="#101615" d="M1675.4 1000.7l-314.9 195 284.9-75z"/><path fill="#9a7d00" d="M805.8 468.5L678.4 551 371.1 191.2z"/><path fill="#292521" d="M1435.5 641l-194.9 307.3-15-127.5z"/><path fill="#141006" d="M1173.1 955.8l-97.4-277.4-105 105z"/><path fill="#664a00" d="M1585.4 326l112.5-74.9 269.8 217.4z"/><path d="M221.1 183.7l-75 149.9 120-60z"/><path fill="#5d4320" d="M1877.8 955.8l-195-195 112.5 329.9z"/><path fill="#b38f00" d="M1735.3 453.5L1488 341.1l247.3 37.5z"/><path fill="#c79200" d="M1225.6 348.6l344.8 15V266z"/><path fill="#fed132" d="M1405.5 101.2l82.5-120-150 112.5z"/><path fill="#5e480c" d="M1533 348.6l-7.5 224.9L1398 723.4z"/><path fill="#e1ba01" d="M663.4 116.2l52.5 90 105-45z"/><path fill="#ced5db" d="M168.7 1075.7l-284.9-22.5 157.4 142.4z"/><path fill="#a58f5a" d="M1353 1008.2l-67.4-7.5 15-172.4z"/><path fill="#875f00" d="M1240.6 138.7l-172.4-135v210z"/><path fill="#e1b106" d="M1038.2 228.6l-22.5-194.9 90-149.9z"/><path fill="#110f20" d="M41.2 948.3l-7.5-277.4 135 150z"/><path fill="#1f190a" d="M1652.9 483.5l15 179.9-247.4 22.5z"/><path fill="#1c0c00" d="M1083.2 588.4l-67.5-60-90 37.6z"/><path fill="#505550" d="M573.5 1053.2l-135-22.5-15-97.4z"/><path fill="#8d7861" d="M828.3 805.8l-60 112.5-82.4-150z"/><path d="M1518 820.8l-45 180 52.5 119.9zm-247.4 52.5l-37.5 60 37.5 67.4z"/><path fill="#a99e8c" d="M1210.6 858.3l22.5 67.5-67.5 82.4z"/><path fill="#040605" d="M1525.5 805.8l-187.4 180 90-202.5z"/><path fill="#e9b400" d="M438.5 296.1l-45-30 112.5-30z"/><path fill="#0c0500" d="M476 1023.2l127.4-224.9 75 210z"/><path fill="#eab41f" d="M858.3 723.4l67.5-67.5-90-179.9z"/><path fill="#6e5f00" d="M333.6 281.1L281 588.4l97.5-75z"/><path fill="#a18d76" d="M1705.4 1000.7l-105-37.5 120-60z"/><path fill="#554935" d="M1188.1 828.3l232.4-15-157.4-105z"/><path fill="#805a00" d="M903.3 11.2l-135 22.5L895.8-93.7z"/><path fill="#5d5e39" d="M416 895.8V618.4l-67.4 217.4z"/><path fill="#4b3812" d="M1188.1 1128.2l150-97.5h-127.5z"/><path fill="#776150" d="M468.5 753.4l194.9-15-7.5-52.5z"/><path fill="#a47500" d="M685.9 670.9l157.4 97.4V648.4z"/><path fill="#dab404" d="M543.5 318.6h284.8l30 97.4z"/><path fill="#171007" d="M925.8 700.9l179.9 277.3 90-60z"/><path fill="#433d1b" d="M1817.8 386l-179.9 427.3L1855.3 671z"/><path fill="#5d3b00" d="M1563-63.7l262.3 209.9 142.4-262.4z"/><path fill="#d4a002" d="M1030.7 498.5l299.9 179.9-225-60z"/><path fill="#090f0d" d="M1585.4 828.3l97.5 22.5-52.5-112.4z"/><path fill="#787c60" d="M-71.2 918.3l90-97.5 30 195z"/><path fill="#887549" d="M963.2 1053.2l352.4 112.4 30-97.4z"/><path d="M1840.3 865.8l-105-150 97.5 15z"/><path fill="#854e00" d="M1000.7 213.6l-97.4-7.5 172.4 82.5z"/><path fill="#857466" d="M1413 985.7l30-37.4h97.4z"/><path fill="#a17000" d="M1263 311l150 7.6-239.9 509.7z"/><path d="M468.5 700.9l-45-7.5L446 820.8z"/><path fill="#d29a00" d="M1083.2 251.1l299.8-30-22.5 105z"/><path fill="#846700" d="M723.4-3.7l-329.9-30-217.3 164.9z"/><path fill="#140c00" d="M123.7 656L221 468.4 131 371z"/><path fill="#573600" d="M1135.7 266.1l-7.5-112.4h-52.5z"/><path fill="#e5ba0c" d="M693.4 491L566 416l149.9 37.5z"/><path fill="#332a21" d="M41.2 978.2l45 105 97.5-105z"/><path fill="#956700" d="M1413 281.1l284.9-67.5-397.3-37.4z"/><path fill="#5c662a" d="M356 723.4l-67.4-37.5V528.5z"/><path fill="#1b130f" d="M940.8 663.4L813.3 880.8l67.5 187.4z"/><path fill="#807556" d="M1885.3 948.3l45-67.5-52.5-82.5z"/><path fill="#807069" d="M1038.2 618.4l37.5-22.5-22.5 112.5z"/><path fill="#573a00" d="M423.5 243.6l-67.4-97.4-30 142.4z"/><path fill="#332318" d="M948.3 670.9l172.4 374.8-195-15z"/><path fill="#a4b69a" d="M101.2 1150.7l52.5 22.4 15-157.4z"/><path d="M1885.3 318.6l15-60-142.5 22.5z"/><path fill="#757f80" d="M1518 783.3l52.4 52.5v112.5z"/><path fill="#3b2500" d="M700.9 693.4l-15 75 90-30z"/><path fill="#5a391d" d="M753.4 1023.2l-135-112.4 90 157.4z"/><path fill="#bfa100" d="M828.3 333.6l-75 247.3 195-52.4z"/><path fill="#472200" d="M656 236.1l-67.6 52.5-7.5-22.5z"/><path d="M138.7-116.2l15 165 134.9-37.6z"/><path fill="#010700" d="M1690.4 903.3l-82.5-120 97.5 60z"/><path fill="#815100" d="M708.4 123.7l-15-165 67.5 172.5z"/></g></svg>