<svg id="Bug" xmlns="http://www.w3.org/2000/svg" viewBox="0 0 342.227 364"><defs><style>.cls-1{fill:#fff}</style></defs><path class="cls-1" d="M250.378 432c-68.42 0-124.084-64.202-124.084-143.118s55.665-143.118 124.084-143.118 124.084 64.202 124.084 143.118S318.797 432 250.378 432Zm0-270.764c-59.824 0-108.492 57.262-108.492 127.646s48.668 127.646 108.492 127.646S358.87 359.266 358.87 288.882s-48.668-127.646-108.492-127.646Z" transform="translate(-79.265 -68)"/><path class="cls-1" d="m173.498 197.874-3.804-11.741a93.222 93.222 0 0 1-4.535-28.765c0-49.277 38.228-89.368 85.219-89.368s85.221 40.09 85.221 89.368a93.124 93.124 0 0 1-4.54 28.766l-3.804 11.74-8.994-8.509c-19.459-18.402-42.93-28.129-67.883-28.129-24.95 0-48.422 9.727-67.884 28.13Zm76.88-52.11c24.463 0 48.42 8.407 68.66 23.897a78.216 78.216 0 0 0 .97-12.293c0-40.747-31.237-73.896-69.63-73.896s-69.627 33.15-69.627 73.896a78.24 78.24 0 0 0 .97 12.293c20.24-15.491 44.196-23.897 68.657-23.897Zm-106.142 79.941a7.871 7.871 0 0 1-1.896-.232c-36.248-8.994-39.545-49.09-39.667-50.792a7.796 7.796 0 0 1 15.551-1.12c.107 1.346 2.738 30.66 27.897 36.901a7.731 7.731 0 0 1-1.885 15.243Zm-10.146 72.202H87.061a7.736 7.736 0 1 1 0-15.472h47.029a7.736 7.736 0 1 1 0 15.472Zm-23.641 123.778a7.765 7.765 0 0 1-7.796-7.736c0-43.702 44.935-59.504 46.849-60.155a7.808 7.808 0 0 1 9.904 4.806 7.723 7.723 0 0 1-4.827 9.823c-1.525.527-36.334 12.984-36.334 45.526a7.765 7.765 0 0 1-7.796 7.736Zm246.073-195.98a7.731 7.731 0 0 1-1.885-15.243c25.408-6.302 27.874-36.578 27.897-36.884a7.795 7.795 0 0 1 15.551 1.103c-.122 1.703-3.418 41.798-39.667 50.792a7.871 7.871 0 0 1-1.896.232Zm57.175 72.202h-47.031a7.736 7.736 0 1 1 0-15.472h47.031a7.736 7.736 0 1 1 0 15.472ZM390.31 421.685a7.765 7.765 0 0 1-7.796-7.736c0-32.776-35.955-45.397-36.317-45.521a7.722 7.722 0 0 1-4.845-9.828 7.806 7.806 0 0 1 9.905-4.806c1.913.651 46.848 16.453 46.848 60.155a7.765 7.765 0 0 1-7.796 7.736Z" transform="translate(-79.265 -68)"/><path class="cls-1" d="M250.774 432a7.765 7.765 0 0 1-7.796-7.736V153.5a7.796 7.796 0 0 1 15.592 0v270.764a7.765 7.765 0 0 1-7.796 7.736Z" transform="translate(-79.265 -68)"/></svg>