<svg xmlns="http://www.w3.org/2000/svg" width="24" height="23.99987" viewBox="0 0 24 23.99987">
  <title>codepen</title>
  <path d="M23.54508,7.48613,12.57635.17364a1.04206,1.04206,0,0,0-1.15176,0L.45586,7.48613a1.04847,1.04847,0,0,0-.45534.8571v7.31244a1.04849,1.04849,0,0,0,.45539.85716l10.96873,7.31351a1.04206,1.04206,0,0,0,1.15176,0l10.96873-7.31351a1.04857,1.04857,0,0,0,.45539-.85716V8.34323a1.04856,1.04856,0,0,0-.45544-.8571ZM13.03174,2.95928l8.07589,5.384L17.505,10.754,13.03174,7.76733Zm-2.06249,0V7.76733L6.496,10.754,2.89336,8.34323ZM2.063,10.27181l2.58483,1.72767L2.063,13.72715V10.27181Zm8.90624,10.76787-8.07589-5.384L6.496,13.245l4.47323,2.98663ZM12.00049,14.437,8.35761,11.99948,12.00049,9.562l3.64289,2.4375Zm1.03125,6.60271V16.23162L17.505,13.245l3.60266,2.41073ZM21.938,13.72714l-2.58482-1.72766L21.938,10.27181v3.45534Z" transform="translate(-0.00052 -0.00006)" style="fill: var(--clr-fill)" />
</svg>
