<svg xmlns="http://www.w3.org/2000/svg" width="24" height="23.40036" viewBox="0 0 24 23.40036">
  <title>github</title>
  <path d="M8.02742,19.14176c0,.09677-.11129.17419-.25161.17419-.15968.01451-.271-.0629-.271-.17419,0-.09678.11129-.1742.25161-.1742C7.90161,18.95305,8.02742,19.03046,8.02742,19.14176ZM6.52258,18.924c-.03387.09678.0629.20807.20806.2371a.227.227,0,0,0,.3-.09677c.029-.09678-.0629-.20807-.20806-.25162a.24837.24837,0,0,0-.3.11129Zm2.13871-.08226c-.14032.03388-.2371.12581-.22258.2371.01451.09678.14032.15968.28548.12581.14032-.03387.2371-.12581.22258-.22258C8.93226,18.89014,8.80161,18.82724,8.66129,18.84175ZM11.84516.29982A11.60275,11.60275,0,0,0,0,12.10627a12.13113,12.13113,0,0,0,8.20161,11.5742c.61936.11129.8371-.271.8371-.58549,0-.3-.01452-1.95484-.01452-2.971,0,0-3.38709.72581-4.09838-1.44193,0,0-.55162-1.40807-1.34516-1.771,0,0-1.10807-.75968.07741-.74516a2.55415,2.55415,0,0,1,1.86775,1.24839,2.55783,2.55783,0,0,0,3.52742,1.01129A2.68931,2.68931,0,0,1,9.82742,16.795c-2.70484-.3-5.43387-.69193-5.43387-5.34677a3.66717,3.66717,0,0,1,1.14193-2.85,4.57176,4.57176,0,0,1,.12581-3.28549C6.67258,4.99821,9,6.61918,9,6.61918a11.43074,11.43074,0,0,1,6.07742,0s2.32742-1.62581,3.33871-1.30646a4.56963,4.56963,0,0,1,.12581,3.28549,3.76125,3.76125,0,0,1,1.24838,2.85c0,4.66935-2.85,5.04193-5.55484,5.34677a2.86151,2.86151,0,0,1,.82259,2.24516c0,1.63065-.01452,3.64839-.01452,4.04516,0,.31452.22258.69678.8371.58549A12.01939,12.01939,0,0,0,24,12.10627,11.86438,11.86438,0,0,0,11.84516.29982ZM4.70323,16.98853c-.06291.04839-.04839.15968.03387.25161.07742.07742.18871.11129.25161.04839.0629-.04839.04839-.15968-.03387-.25161C4.87742,16.9595,4.76613,16.92563,4.70323,16.98853Zm-.52259-.39194c-.03387.06291.01452.14033.1113.18871A.144.144,0,0,0,4.5,16.75143c.03387-.0629-.01452-.14032-.11129-.18871C4.29194,16.53369,4.21452,16.54821,4.18064,16.59659Zm1.56775,1.72258c-.07742.06291-.04839.20807.0629.3.11129.11128.25161.1258.31452.04838.0629-.0629.03387-.20806-.06291-.3C5.95645,18.25627,5.81129,18.24175,5.74839,18.31917Zm-.55162-.71129c-.07742.04839-.07742.1742,0,.28549s.20807.15967.271.11129a.22069.22069,0,0,0,0-.3c-.06774-.11129-.19355-.15968-.271-.09678Z" style="fill: var(--clr-fill)"/>
</svg>
