<svg xmlns="http://www.w3.org/2000/svg" width="23.8" height="23.8" viewBox="0 0 23.8 23.8">
  <title>instagram</title>
  <path d="M12.05266,5.798A6.102,6.102,0,1,0,18.15332,11.9,6.09168,6.09168,0,0,0,12.05266,5.798Zm0,10.06913A3.96711,3.96711,0,1,1,16.01888,11.9a3.97387,3.97387,0,0,1-3.96622,3.96711ZM19.82582,5.54838a1.423,1.423,0,1,1-1.423-1.42328A1.41981,1.41981,0,0,1,19.82582,5.54838Zm4.04056,1.44451a7.04427,7.04427,0,0,0-1.922-4.98677A7.08734,7.08734,0,0,0,16.95867.08364c-1.96453-.11152-7.8528-.11152-9.81733,0A7.07715,7.07715,0,0,0,2.15569,2.00081,7.0674,7.0674,0,0,0,.23363,6.98758c-.1115,1.965-.1115,7.85456,0,9.81952a7.04432,7.04432,0,0,0,1.92206,4.98677,7.09625,7.09625,0,0,0,4.98565,1.92248c1.96453.11153,7.8528.11153,9.81733,0a7.041,7.041,0,0,0,4.98566-1.92248,7.0906,7.0906,0,0,0,1.922-4.98677c.1115-1.965.1115-7.84924,0-9.81421Zm-2.538,11.92257a4.01592,4.01592,0,0,1-2.26186,2.26237c-1.56632.62135-5.283.478-7.0139.478s-5.45289.13808-7.0139-.478A4.01593,4.01593,0,0,1,2.7769,18.91546C2.15568,17.3488,2.299,13.63129,2.299,11.9S2.161,6.44589,2.7769,4.88454A4.01589,4.01589,0,0,1,5.03876,2.62217c1.56632-.62136,5.283-.478,7.0139-.478s5.45289-.13808,7.0139.478a4.01587,4.01587,0,0,1,2.26186,2.26237c.62122,1.56666.47786,5.28416.47786,7.01546S21.94964,17.35411,21.32842,18.91546Z" transform="translate(-0.15001)" style="fill: var(--clr-fill)"/>
</svg>
