<svg id="layer" xmlns="http://www.w3.org/2000/svg" viewBox="0 0 422 319.219"><defs><style>.cls-1{fill:#fff}</style></defs><path class="cls-1" d="M246.37 271.516 53.295 186.562a9.01 9.01 0 0 1 .093-16.535l193.074-82.379 7.074 16.575-173.95 74.219 174.041 76.58Z" transform="translate(-39 -84.352)"/><path class="cls-1" d="M249.998 277.427a8.987 8.987 0 0 1-3.627-.763L44.383 187.79a9.01 9.01 0 0 1 .093-16.535l201.985-86.181a9.018 9.018 0 0 1 7.072 0l201.988 86.181a9.01 9.01 0 0 1 .093 16.535l-201.988 88.874a8.987 8.987 0 0 1-3.628.763ZM70.674 179.67l179.324 78.903 179.327-78.903-179.327-76.513Z" transform="translate(-39 -84.352)"/><path class="cls-1" d="M249.998 341.786a8.976 8.976 0 0 1-3.627-.764L44.383 252.149a9.01 9.01 0 0 1 7.258-16.495l198.357 87.277 198.361-87.277a9.01 9.01 0 1 1 7.255 16.495l-201.988 88.875a9.006 9.006 0 0 1-3.628.762Z" transform="translate(-39 -84.352)"/><path class="cls-1" d="M249.998 403.57a8.967 8.967 0 0 1-3.627-.764L44.383 313.931a9.01 9.01 0 1 1 7.258-16.492l198.357 87.276L448.36 297.44a9.009 9.009 0 1 1 7.255 16.492l-201.988 88.875a8.967 8.967 0 0 1-3.628.764Z" transform="translate(-39 -84.352)"/></svg>