<svg id="layer" xmlns="http://www.w3.org/2000/svg" viewBox="0 0 422 319.21885"><defs><style>.cls-1{fill:#fff;}</style></defs><title>layer</title><path class="cls-1" d="M246.37051,271.5156,53.29421,186.562a9.01025,9.01025,0,0,1,.093-16.53467L246.461,87.64813l7.07444,16.5749L79.58451,178.44176,253.626,255.02115Z" transform="translate(-39 -84.35163)"/><path class="cls-1" d="M249.99823,277.4273a8.98684,8.98684,0,0,1-3.62772-.763L44.38328,187.79012a9.01026,9.01026,0,0,1,.093-16.53467L246.461,85.07378a9.01784,9.01784,0,0,1,7.07192,0l201.98848,86.18167a9.00942,9.00942,0,0,1,.093,16.53467L253.626,276.6643A8.98681,8.98681,0,0,1,249.99823,277.4273ZM70.67359,179.66985l179.32464,78.9036,179.32715-78.9036L249.99823,103.15709Z" transform="translate(-39 -84.35163)"/><path class="cls-1" d="M249.99823,341.78607a8.976,8.976,0,0,1-3.62772-.76426L44.38328,252.14889a9.01034,9.01034,0,0,1,7.258-16.49445l198.357,87.27652L448.359,235.65444a9.00983,9.00983,0,1,1,7.25544,16.49445L253.626,341.02432A9.00637,9.00637,0,0,1,249.99823,341.78607Z" transform="translate(-39 -84.35163)"/><path class="cls-1" d="M249.99823,403.57048a8.96705,8.96705,0,0,1-3.62772-.76426L44.38328,313.93079a9.00919,9.00919,0,1,1,7.258-16.49194l198.357,87.27652L448.359,297.43885a9.00868,9.00868,0,1,1,7.25544,16.49194L253.626,402.80622A8.967,8.967,0,0,1,249.99823,403.57048Z" transform="translate(-39 -84.35163)"/></svg>