<svg height="40" width="40" xmlns="http://www.w3.org/2000/svg" style="enable-background:new 0 0 40 40" xml:space="preserve"><path d="M20.2 18.7 30.9 8c.7-.7 1.9-.7 2.6 0l1.6 2c.7.7.7 1.9 0 2.6l-7.5 7.6 7.5 7.5c.7.7.7 1.9 0 2.6L33.3 32c-.7.7-1.9.7-2.6 0L20.2 21.3c-.8-.7-.8-1.9 0-2.6z" style="opacity:.45;fill:#cca78b"/><path d="M5.1 18.7c-.8.7-.8 2 0 2.7l10.7 10.5c.7.7 1.9.7 2.6 0l1.8-1.8c.7-.7.7-1.9 0-2.6l-7.5-7.6 7.5-7.5c.7-.7.7-1.9 0-2.6L18.4 8c-.7-.7-1.9-.7-2.6 0L5.1 18.7z" style="fill:#cca78b"/></svg>