<svg xmlns="http://www.w3.org/2000/svg" width="24" height="18.67701" viewBox="0 0 24 18.67701">
  <title>link</title>
  <path d="M22.3172,12.46463a5.74218,5.74218,0,0,0-7.39836-8.73269l-.06354.04369a1.26952,1.26952,0,0,0,1.47729,2.065l.06354-.04369a3.2006,3.2006,0,0,1,4.12211,4.8687l-4.45569,4.46364a3.20061,3.20061,0,0,1-4.86871-4.12211l.04369-.06354a1.26952,1.26952,0,1,0-2.065-1.47729l-.04368.06354a5.73914,5.73914,0,0,0,8.72871,7.39439ZM1.6828,11.53537a5.74218,5.74218,0,0,0,7.39836,8.73269l.06354-.04369a1.26952,1.26952,0,1,0-1.47729-2.065l-.06354.04369a3.20213,3.20213,0,0,1-4.12211-4.87268L7.93745,8.87069a3.20187,3.20187,0,0,1,4.86871,4.12608l-.04369.06354a1.26952,1.26952,0,0,0,2.065,1.47729l.04368-.06354A5.74041,5.74041,0,0,0,6.14247,7.0757Z" transform="translate(0 -2.6615)" style="fill: var(--clr-fill)"/>
</svg>
