<svg xmlns="http://www.w3.org/2000/svg" viewBox="0 0 65 65" style="enable-background:new 0 0 65 65" xml:space="preserve"><path d="m39.305 44.554 11.54-16.273h-7.344c-4.039 0-7.41 1.036-8.933 2.001-2.327 1.246-3.858 3.557-4.077 6.325l-2.172-4.32a6.034 6.034 0 0 1-1.414.515c-.824.202-1.58.378-2.277.551l3.241 6.413a5.236 5.236 0 0 1-10.411-.778c0-.939.298-1.905.731-2.667 1.252-2.182 2.816-3.021 5.106-3.685l.162-.046.03-.009.39-.107.012-.003.186-.049.027-.007.196-.05.004-.001.427-.107a.174.174 0 0 1 .022-.005l.204-.05.01-.003c.34-.083.694-.167 1.062-.256l.083-.02.088-.021.15-.036.081-.02.061-.015.414-.101c.346-.078.68-.188 1-.322l.001.001.041-.018.103-.046.106-.049.092-.045.112-.057.083-.044a4.245 4.245 0 0 0 .153-.085l-.001-.001a6.076 6.076 0 0 0-3.041-11.336H14.155v16.453c.104-.263.226-.516.365-.759 0 0 1.007-1.763 3.274-3.152V20.519h5.701c3.059 0 5.538 2.402 5.538 5.461 0 0 .12 2.28-1.503 3.959a4.693 4.693 0 0 1-.237.229l-.01.009a4.735 4.735 0 0 1-.249.209l-.025.019a5.146 5.146 0 0 1-.257.187l-.044.029a2.194 2.194 0 0 1-.08.052l-.057.036c-.041.025-.083.051-.125.075l-.066.038-.075.042-.103.055-.088.044-.09.044-.07.033-.142.063-.058.024-.116.047-.065.025-.164.06-.044.015a5.897 5.897 0 0 1-.142.046l-.061.019-.183.053-.032.008a8.338 8.338 0 0 1-.169.043l-.058.014a6.042 6.042 0 0 1-.203.045l-.021.004a9.689 9.689 0 0 1-.195.037l-.058.01-.221.035-.01.001-.221.029-.06.007a8.707 8.707 0 0 1-.238.024c-.103.009-.204.019-.305.03l-.016.002c-5.58.627-7.919 4.723-7.919 4.723a5.919 5.919 0 0 0 5.138 8.86s3.502.21 6.299-1.738a6.875 6.875 0 0 0 2.04-2.064l.19.374 1.744 3.434h4.213l-1.867-3.688s-.475-2.754.002-5.501a6.827 6.827 0 0 1 1.368-3.297c2.499-3.622 8.348-3.837 9.196-3.837h3.947l-11.64 16.325h14.962V42.09c-2.32 1.913-7.24 2.464-8.104 2.464h-3.436z"/><path d="M32.5 64.5c-17.645 0-32-14.355-32-32s14.355-32 32-32 32 14.355 32 32-14.355 32-32 32zm0-62.842C15.494 1.658 1.658 15.494 1.658 32.5S15.494 63.342 32.5 63.342 63.342 49.507 63.342 32.5c0-17.006-13.836-30.842-30.842-30.842z"/></svg>