<svg height="40" width="40" xmlns="http://www.w3.org/2000/svg" style="enable-background:new 0 0 40 40" xml:space="preserve"><path d="M20 21.3 9.4 32c-.7.7-1.9.7-2.6 0L5 30.2c-.7-.7-.7-1.9 0-2.6l7.5-7.5L5 12.5c-.7-.7-.7-1.9 0-2.6l1.6-2c.7-.7 1.9-.7 2.6 0l10.7 10.7c.9.8.9 2 .1 2.7z" style="opacity:.45;fill:#cca78b;enable-background:new"/><path d="M35 18.7 24.4 8c-.7-.7-1.9-.7-2.6 0L20 9.8c-.7.7-.7 1.9 0 2.6l7.5 7.5-7.5 7.6c-.7.7-.7 1.9 0 2.6l1.8 1.8c.7.7 1.9.7 2.6 0L35 21.3c.8-.7.8-1.9 0-2.6z" style="fill:#cca78b"/></svg>