<svg xmlns="http://www.w3.org/2000/svg" width="24" height="19.49244" viewBox="0 0 24 19.49244">
  <title>twitter</title>
  <path d="M21.53305,7.11164c.01524.21319.01524.42643.01524.63962a13.89906,13.89906,0,0,1-13.995,13.995A13.90013,13.90013,0,0,1,0,19.53812a10.17705,10.17705,0,0,0,1.18782.06089A9.85086,9.85086,0,0,0,7.29443,17.4975a4.92745,4.92745,0,0,1-4.599-3.4112,6.20379,6.20379,0,0,0,.929.07612,5.20218,5.20218,0,0,0,1.29441-.16748A4.91946,4.91946,0,0,1,.97458,9.1675V9.10661a4.95392,4.95392,0,0,0,2.22334.62433,4.92614,4.92614,0,0,1-1.52284-6.5787A13.98148,13.98148,0,0,0,11.81723,8.29946a5.553,5.553,0,0,1-.12182-1.12688,4.92348,4.92348,0,0,1,8.51272-3.36549A9.6843,9.6843,0,0,0,23.33,2.61927a4.90555,4.90555,0,0,1-2.16245,2.71065A9.861,9.861,0,0,0,24,4.56853a10.57341,10.57341,0,0,1-2.467,2.54312Z" transform="translate(0 -2.25378)" style="fill:var(--clr-fill)"/>
</svg>
