<svg id="Bug" xmlns="http://www.w3.org/2000/svg" viewBox="0 0 342.22738 364"><defs><style>.cls-1{fill:#FFF;}</style></defs><title>Bug</title><path class="cls-1" d="M250.37786,432c-68.41909,0-124.08366-64.20189-124.08366-143.118s55.66457-143.118,124.08366-143.118,124.08366,64.20189,124.08366,143.118S318.79694,432,250.37786,432Zm0-270.76378c-59.82388,0-108.492,57.26155-108.492,127.64578s48.66812,127.64578,108.492,127.64578,108.492-57.26155,108.492-127.64578S310.20173,161.23622,250.37786,161.23622Z" transform="translate(-79.26544 -68)"/><path class="cls-1" d="M173.49806,197.87445,169.694,186.133a93.22211,93.22211,0,0,1-4.53488-28.76488c0-49.27739,38.228-89.36816,85.2187-89.36816s85.22123,40.09077,85.22123,89.36816a93.124,93.124,0,0,1-4.53995,28.76614l-3.804,11.73889-8.99362-8.508c-19.45913-18.40222-42.93037-28.129-67.88363-28.129-24.95072,0-48.422,9.72679-67.88363,28.13027Zm76.8798-52.11045c24.46348,0,48.41942,8.40723,68.66016,23.89707a78.21632,78.21632,0,0,0,.96941-12.29291c0-40.74677-31.23662-73.89594-69.62957-73.89594s-69.627,33.14917-69.627,73.89594a78.24007,78.24007,0,0,0,.9694,12.29291C201.961,154.17,225.91691,145.764,250.37786,145.764Z" transform="translate(-79.26544 -68)"/><path class="cls-1" d="M144.23578,225.705a7.87126,7.87126,0,0,1-1.89567-.23168c-36.24859-8.994-39.54507-49.08978-39.66688-50.79213a7.796,7.796,0,0,1,15.55106-1.12063c.10659,1.346,2.73819,30.66113,27.897,36.90139a7.73149,7.73149,0,0,1-1.88551,15.24305Z" transform="translate(-79.26544 -68)"/><path class="cls-1" d="M134.09,297.90746H87.06127a7.73634,7.73634,0,1,1,0-15.47222H134.09a7.73634,7.73634,0,1,1,0,15.47222Z" transform="translate(-79.26544 -68)"/><path class="cls-1" d="M110.44876,421.68519a7.76491,7.76491,0,0,1-7.79583-7.73611c0-43.702,44.93516-59.50407,46.84859-60.155a7.80785,7.80785,0,0,1,9.90466,4.80611,7.72255,7.72255,0,0,1-4.82671,9.82249c-1.52516.52758-36.33487,12.98417-36.33487,45.52644A7.76491,7.76491,0,0,1,110.44876,421.68519Z" transform="translate(-79.26544 -68)"/><path class="cls-1" d="M356.52248,225.705A7.73149,7.73149,0,0,1,354.637,210.462c25.40751-6.302,27.87416-36.57779,27.897-36.88376a7.79529,7.79529,0,0,1,15.55106,1.103c-.12181,1.70235-3.41829,41.79815-39.66688,50.79213A7.87124,7.87124,0,0,1,356.52248,225.705Z" transform="translate(-79.26544 -68)"/><path class="cls-1" d="M413.697,297.90746h-47.0313a7.73634,7.73634,0,1,1,0-15.47222H413.697a7.73634,7.73634,0,1,1,0,15.47222Z" transform="translate(-79.26544 -68)"/><path class="cls-1" d="M390.30949,421.68519a7.7649,7.7649,0,0,1-7.79583-7.73611c0-32.77647-35.95422-45.39675-36.31711-45.5214a7.72226,7.72226,0,0,1-4.84448-9.82753,7.80583,7.80583,0,0,1,9.90467-4.80611c1.91343.651,46.84858,16.45308,46.84858,60.155A7.7649,7.7649,0,0,1,390.30949,421.68519Z" transform="translate(-79.26544 -68)"/><path class="cls-1" d="M250.77374,432a7.7649,7.7649,0,0,1-7.79583-7.73611V153.50011a7.79606,7.79606,0,0,1,15.59166,0V424.26389A7.7649,7.7649,0,0,1,250.77374,432Z" transform="translate(-79.26544 -68)"/></svg>