<?xml version="1.0" encoding="utf-8"?>
<!-- Generator: Adobe Illustrator 23.0.6, SVG Export Plug-In . SVG Version: 6.00 Build 0)  -->
<svg height="40" width="40" version="1.1" id="圖層_1" focusable="false" xmlns="http://www.w3.org/2000/svg" xmlns:xlink="http://www.w3.org/1999/xlink"
	 x="0px" y="0px" viewBox="0 0 40 40" style="enable-background:new 0 0 40 40;" xml:space="preserve">
<style type="text/css">
	.st0{opacity:0.45;fill:#CCA78B;}
	.st1{fill:#CCA78B;}
</style>
<path class="st0" d="M20.2,18.7L30.9,8c0.7-0.7,1.9-0.7,2.6,0l1.6,2c0.7,0.7,0.7,1.9,0,2.6l-7.5,7.6l7.5,7.5c0.7,0.7,0.7,1.9,0,2.6
	L33.3,32c-0.7,0.7-1.9,0.7-2.6,0L20.2,21.3C19.4,20.6,19.4,19.4,20.2,18.7z"/>
<path class="st1" d="M5.1,18.7c-0.8,0.7-0.8,2,0,2.7l10.7,10.5c0.7,0.7,1.9,0.7,2.6,0l1.8-1.8c0.7-0.7,0.7-1.9,0-2.6l-7.5-7.6
	l7.5-7.5c0.7-0.7,0.7-1.9,0-2.6L18.4,8c-0.7-0.7-1.9-0.7-2.6,0L5.1,18.7L5.1,18.7z"/>
</svg>
