<svg width="65px" height="65px" xmlns="http://www.w3.org/2000/svg" viewBox="0 0 110.06192 110.06192"><defs><style>.cls-1{fill:none;stroke:#141414;stroke-miterlimit:10;stroke-width:2.5px;}.cls-2{fill:#141414;}</style></defs><title>Logo</title><circle class="cls-1" cx="55.03096" cy="55.03096" r="53.78096"/><path class="cls-2" d="M78.28463,78.758,96.31445,53.33391H84.84015c-6.31023,0-11.57646,1.61781-13.95631,3.12561a12.11894,12.11894,0,0,0-6.36926,9.88227l-3.39264-6.74961a9.411,9.411,0,0,1-2.20933.805c-1.28726.31569-2.46838.59057-3.55792.86112L60.418,71.27766A8.17874,8.17874,0,0,1,44.15143,70.061a8.71552,8.71552,0,0,1,1.14138-4.1672c1.95623-3.40926,4.39929-4.72039,7.97765-5.757q.12523-.03628.25234-.07215l.04735-.01337q.29968-.08417.60977-.16664l.0193-.00511q.14448-.0384.29135-.0766l.04247-.011q.15186-.0394.30611-.07874l.00576-.00147q.32774-.08345.66716-.167l.0348-.00858q.15825-.039.319-.07821l.01618-.00394c.53088-.12943,1.08378-.26135,1.65853-.39923l.13024-.03125.13789-.03315.23431-.05641.12688-.03063.095-.02292.00019-.00012c.21311-.05156.42841-.10385.64756-.15759a9.39,9.39,0,0,0,1.56221-.50357l.0011.00115c.02138-.009.04224-.01895.06355-.02809.054-.02318.1076-.047.16106-.07119q.0829-.03739.165-.07615.07225-.03433.14376-.06995.088-.04362.17509-.08887.06542-.03414.13016-.06933.09028-.04888.17938-.09956c.01989-.01134.04029-.02188.06009-.03336l-.00092-.001a9.49257,9.49257,0,0,0-4.75155-17.71066H38.9919V65.67583a9.207,9.207,0,0,1,.57046-1.18567,15.60784,15.60784,0,0,1,5.1156-4.925v-18.357h8.90613a8.54928,8.54928,0,0,1,8.65215,8.53209,9.02467,9.02467,0,0,1-2.34845,6.18462h0q-.17622.18219-.37039.35782l-.01576.01422q-.18561.1668-.38837.32637l-.03889.03046q-.19255.14952-.4011.29148l-.06829.04609c-.04129.02749-.0828.05487-.125.08188-.02933.01875-.05936.03714-.08914.05566q-.096.05972-.19525.11775-.05113.02986-.103.05934c-.03871.02189-.07756.04371-.117.0652q-.07977.04344-.16168.0857c-.04524.02343-.09116.04647-.13733.06937s-.09284.04566-.14.068c-.03607.01711-.07223.03416-.10886.05094-.07288.03337-.14654.06627-.22164.0983-.02977.0127-.0603.02493-.09042.03742q-.08927.037-.18052.07273c-.03354.01311-.06713.02618-.10109.039-.08424.03182-.16934.06311-.25621.09324l-.06809.0228q-.10977.03722-.22233.07259l-.09536.02958c-.09415.0286-.18924.05656-.28632.08317l-.05025.01322q-.13019.035-.264.06754l-.09112.02189c-.10407.02448-.20918.04822-.31648.07041l-.0325.00639q-.15029.03068-.30513.05807l-.09039.01585c-.11357.01945-.22825.03809-.34529.055l-.01539.00208c-.11336.01624-.22883.0309-.34548.04469l-.09306.01071c-.12257.01369-.24628.02653-.3725.03744-.16042.01386-.31877.03-.4759.04749l-.02479.00295A16.73137,16.73137,0,0,0,40.712,66.02722,9.24987,9.24987,0,0,0,48.73914,79.869a17.38014,17.38014,0,0,0,9.84076-2.715l0,0a10.736,10.736,0,0,0,3.18686-3.224l.29677.58361,2.72413,5.36556h6.58246l-2.91669-5.76159a28.64951,28.64951,0,0,1,.00357-8.59491,10.67493,10.67493,0,0,1,2.13672-5.1516c3.90419-5.65848,13.0415-5.99511,14.3671-5.99511h6.1669L72.93891,79.87928H96.31445V74.90892c-3.62453,2.989-11.31051,3.84906-12.66138,3.84906Z" transform="translate(-12.62222 -4.89471)"/></svg>