<?xml version="1.0" encoding="utf-8"?>
<!-- Generator: Adobe Illustrator 23.0.6, SVG Export Plug-In . SVG Version: 6.00 Build 0)  -->
<svg height="40" width="40" version="1.1" id="圖層_1" focusable="false" xmlns="http://www.w3.org/2000/svg" xmlns:xlink="http://www.w3.org/1999/xlink"
	 x="0px" y="0px" viewBox="0 0 40 40" style="enable-background:new 0 0 40 40;" xml:space="preserve">
<style type="text/css">
	.st0{opacity:0.45;fill:#CCA78B;enable-background:new    ;}
	.st1{fill:#CCA78B;}
</style>
<path class="st0" d="M20,21.3L9.4,32c-0.7,0.7-1.9,0.7-2.6,0L5,30.2c-0.7-0.7-0.7-1.9,0-2.6l7.5-7.5L5,12.5c-0.7-0.7-0.7-1.9,0-2.6
	l1.6-2c0.7-0.7,1.9-0.7,2.6,0l10.7,10.7C20.8,19.4,20.8,20.6,20,21.3z"/>
<path class="st1" d="M35,18.7L24.4,8c-0.7-0.7-1.9-0.7-2.6,0L20,9.8c-0.7,0.7-0.7,1.9,0,2.6l7.5,7.5L20,27.5c-0.7,0.7-0.7,1.9,0,2.6
	l1.8,1.8c0.7,0.7,1.9,0.7,2.6,0L35,21.3C35.8,20.6,35.8,19.4,35,18.7L35,18.7z"/>
</svg>
